<?xml version="1.0" standalone="no"?>
<!DOCTYPE svg PUBLIC "-//W3C//DTD SVG 20010904//EN"
 "http://www.w3.org/TR/2001/REC-SVG-20010904/DTD/svg10.dtd">
<svg version="1.0" xmlns="http://www.w3.org/2000/svg"
 width="500.000000pt" height="500.000000pt" viewBox="0 0 500.000000 500.000000"
 preserveAspectRatio="xMidYMid meet">

<g transform="translate(0.000000,500.000000) scale(0.100000,-0.100000)"
fill="#000000" stroke="none">
<path d="M0 2500 l0 -2500 2500 0 2500 0 0 2500 0 2500 -2500 0 -2500 0 0
-2500z m1396 901 c212 -100 222 -397 17 -517 -54 -32 -159 -43 -226 -24 -68
18 -137 77 -171 143 -128 251 126 518 380 398z m2482 0 c192 -98 217 -363 47
-493 -62 -47 -117 -62 -204 -56 -152 11 -261 131 -261 288 0 134 77 238 210
281 45 15 162 4 208 -20z m-2129 -327 c38 -49 53 -120 58 -281 l5 -153 32 27
c77 65 192 84 256 40 76 -50 100 -137 100 -362 0 -188 -14 -326 -38 -375 -31
-64 -96 -77 -141 -29 -30 32 -41 98 -47 267 -5 167 -15 226 -40 236 -49 19
-112 -2 -135 -46 -6 -11 -17 -93 -24 -182 -14 -177 -30 -231 -77 -271 -39 -33
-73 -32 -108 3 -43 44 -52 90 -57 297 -10 378 46 755 123 832 31 31 67 30 93
-3z m1589 -27 c39 -42 53 -133 33 -218 l-8 -36 63 -6 c73 -5 125 -32 138 -69
19 -53 -42 -103 -156 -128 -66 -15 -59 4 -79 -214 -13 -143 -6 -210 27 -243
20 -20 33 -23 102 -23 91 0 110 -12 119 -77 11 -80 -74 -135 -208 -135 -103 0
-153 16 -205 64 -64 59 -75 107 -75 311 0 90 3 196 7 236 l7 71 -57 0 c-50 0
-61 4 -87 29 -38 38 -37 65 4 106 31 31 114 65 158 65 13 0 18 13 24 67 9 82
39 168 71 200 32 32 92 32 122 0z m-2719 -8 c60 -56 73 -169 64 -551 -3 -159
-4 -288 0 -288 3 0 52 11 109 25 188 45 307 29 323 -44 19 -89 -97 -175 -311
-231 -174 -44 -299 -44 -335 0 -21 25 -45 157 -60 326 -17 206 15 563 63 691
32 87 97 118 147 72z m3513 -238 c14 -15 30 -43 38 -60 l13 -32 36 35 c47 46
98 66 166 66 143 0 205 -85 213 -291 12 -311 -90 -618 -201 -607 -70 7 -93
134 -63 348 21 150 21 258 0 288 -26 38 -53 24 -91 -44 l-33 -61 -4 -174 c-4
-195 -18 -258 -63 -301 -38 -35 -66 -42 -101 -24 -56 29 -64 71 -74 361 -12
365 -4 449 51 504 32 32 83 28 113 -8z m-1409 -10 c143 -69 203 -222 214 -544
8 -230 -12 -310 -85 -338 -53 -20 -132 32 -132 88 0 14 -3 23 -7 21 -5 -1 -39
-19 -78 -38 -60 -30 -79 -35 -141 -35 -65 0 -76 3 -115 31 -64 46 -109 124
-109 191 0 72 18 109 79 166 61 57 166 109 267 133 80 19 84 24 63 83 -12 34
-53 61 -93 61 -14 0 -59 -18 -101 -40 -90 -48 -134 -52 -170 -15 -29 28 -31
51 -10 103 28 65 94 118 188 148 61 20 173 13 230 -15z m-1359 -16 c37 -57 48
-132 47 -345 0 -229 -11 -328 -42 -401 -25 -58 -51 -79 -96 -79 -68 0 -100 98
-110 330 -9 243 18 424 73 490 21 25 33 30 69 30 34 0 46 -5 59 -25z m2450 0
c37 -57 48 -132 47 -345 0 -229 -11 -328 -42 -401 -25 -58 -51 -79 -96 -79
-68 0 -100 98 -110 330 -9 243 18 424 73 490 21 25 33 30 69 30 34 0 46 -5 59
-25z"/>
<path d="M1359 3270 c-67 -19 -99 -60 -99 -127 1 -71 53 -123 123 -123 100 0
159 99 112 190 -23 44 -88 73 -136 60z m109 -81 c4 -30 -22 -46 -44 -28 -15
12 -19 41 -7 53 16 16 48 1 51 -25z"/>
<path d="M3830 3269 c-19 -4 -47 -21 -62 -38 -77 -86 -18 -211 101 -211 36 0
49 6 76 33 19 19 37 46 41 60 23 92 -62 176 -156 156z m114 -71 c14 -22 -12
-52 -37 -42 -17 6 -23 44 -10 58 11 11 35 3 47 -16z"/>
<path d="M2613 2290 c-55 -25 -93 -63 -93 -93 0 -44 49 -49 128 -12 l52 24 0
51 c0 45 -2 50 -22 50 -13 0 -42 -9 -65 -20z"/>
</g>
</svg>
